STARTFONT 2.1
FONT -FontForge-Alice1 MX-Book-R-Normal--12-120-75-75-P-63-ISO10646-1
SIZE 12 75 75
FONTBOUNDINGBOX 12 12 0 -3
COMMENT "Generated by fontforge, http://fontforge.sourceforge.net"
COMMENT "Unrestricted."
STARTPROPERTIES 40
FOUNDRY "FontForge"
FAMILY_NAME "Alice1 MX"
WEIGHT_NAME "Book"
SLANT "R"
SETWIDTH_NAME "Normal"
ADD_STYLE_NAME ""
PIXEL_SIZE 12
POINT_SIZE 120
RESOLUTION_X 75
RESOLUTION_Y 75
SPACING "P"
AVERAGE_WIDTH 63
CHARSET_REGISTRY "ISO10646"
CHARSET_ENCODING "1"
FONTNAME_REGISTRY ""
CHARSET_COLLECTIONS "ISO10646-1"
FONT_NAME "Alice1MX"
FACE_NAME "Alice1 MX"
COPYRIGHT "Unrestricted."
FONT_VERSION "2.001"
FONT_ASCENT 10
FONT_DESCENT 2
UNDERLINE_POSITION -2
UNDERLINE_THICKNESS 1
X_HEIGHT 5
CAP_HEIGHT 7
RAW_ASCENT 799
RAW_DESCENT 200
NORM_SPACE 3
RELATIVE_WEIGHT 40
RELATIVE_SETWIDTH 50
SUPERSCRIPT_X 0
SUPERSCRIPT_Y 4
SUPERSCRIPT_SIZE 7
SUBSCRIPT_X 0
SUBSCRIPT_Y 1
SUBSCRIPT_SIZE 7
FIGURE_WIDTH 7
AVG_LOWERCASE_WIDTH 60
AVG_UPPERCASE_WIDTH 81
ENDPROPERTIES
CHARS 95
STARTCHAR space
ENCODING 32
SWIDTH 277 0
DWIDTH 3 0
BBX 1 1 0 0
BITMAP
00
ENDCHAR
STARTCHAR exclam
ENCODING 33
SWIDTH 277 0
DWIDTH 3 0
BBX 1 8 1 0
BITMAP
80
80
80
80
80
80
00
80
ENDCHAR
STARTCHAR quotedbl
ENCODING 34
SWIDTH 354 0
DWIDTH 5 0
BBX 3 3 1 5
BITMAP
A0
A0
A0
ENDCHAR
STARTCHAR numbersign
ENCODING 35
SWIDTH 556 0
DWIDTH 7 0
BBX 6 8 0 0
BITMAP
24
28
FC
48
48
FC
50
90
ENDCHAR
STARTCHAR dollar
ENCODING 36
SWIDTH 556 0
DWIDTH 7 0
BBX 5 10 1 -1
BITMAP
20
F8
A0
A0
70
28
28
A8
F0
20
ENDCHAR
STARTCHAR percent
ENCODING 37
SWIDTH 889 0
DWIDTH 11 0
BBX 9 8 1 0
BITMAP
C200
A400
A400
C800
1300
1480
2480
2300
ENDCHAR
STARTCHAR ampersand
ENCODING 38
SWIDTH 666 0
DWIDTH 8 0
BBX 7 8 1 0
BITMAP
38
48
48
30
D4
8C
8C
72
ENDCHAR
STARTCHAR quotesingle
ENCODING 39
SWIDTH 190 0
DWIDTH 2 0
BBX 1 2 1 6
BITMAP
80
80
ENDCHAR
STARTCHAR parenleft
ENCODING 40
SWIDTH 333 0
DWIDTH 4 0
BBX 2 10 1 -2
BITMAP
40
40
80
80
80
80
80
80
40
40
ENDCHAR
STARTCHAR parenright
ENCODING 41
SWIDTH 333 0
DWIDTH 4 0
BBX 2 10 1 -2
BITMAP
80
80
40
40
40
40
40
40
80
80
ENDCHAR
STARTCHAR asterisk
ENCODING 42
SWIDTH 389 0
DWIDTH 5 0
BBX 3 3 1 5
BITMAP
40
E0
E0
ENDCHAR
STARTCHAR plus
ENCODING 43
SWIDTH 583 0
DWIDTH 7 0
BBX 5 5 1 2
BITMAP
20
20
F8
20
20
ENDCHAR
STARTCHAR comma
ENCODING 44
SWIDTH 277 0
DWIDTH 3 0
BBX 1 2 1 -1
BITMAP
80
80
ENDCHAR
STARTCHAR hyphen
ENCODING 45
SWIDTH 399 0
DWIDTH 5 0
BBX 4 1 0 2
BITMAP
F0
ENDCHAR
STARTCHAR period
ENCODING 46
SWIDTH 277 0
DWIDTH 3 0
BBX 1 1 1 0
BITMAP
80
ENDCHAR
STARTCHAR slash
ENCODING 47
SWIDTH 277 0
DWIDTH 3 0
BBX 3 8 0 0
BITMAP
20
20
40
40
40
80
80
80
ENDCHAR
STARTCHAR zero
ENCODING 48
SWIDTH 556 0
DWIDTH 7 0
BBX 5 8 1 0
BITMAP
70
88
88
88
88
88
88
70
ENDCHAR
STARTCHAR one
ENCODING 49
SWIDTH 556 0
DWIDTH 7 0
BBX 3 8 1 0
BITMAP
20
60
A0
20
20
20
20
20
ENDCHAR
STARTCHAR two
ENCODING 50
SWIDTH 556 0
DWIDTH 7 0
BBX 5 8 1 0
BITMAP
70
88
08
10
20
40
80
F8
ENDCHAR
STARTCHAR three
ENCODING 51
SWIDTH 556 0
DWIDTH 7 0
BBX 6 8 1 0
BITMAP
70
88
08
30
08
44
44
38
ENDCHAR
STARTCHAR four
ENCODING 52
SWIDTH 556 0
DWIDTH 7 0
BBX 6 8 0 0
BITMAP
08
38
28
48
88
FC
08
08
ENDCHAR
STARTCHAR five
ENCODING 53
SWIDTH 556 0
DWIDTH 7 0
BBX 5 8 1 0
BITMAP
78
80
F0
88
08
08
88
70
ENDCHAR
STARTCHAR six
ENCODING 54
SWIDTH 556 0
DWIDTH 7 0
BBX 5 8 1 0
BITMAP
70
88
80
F0
88
88
88
70
ENDCHAR
STARTCHAR seven
ENCODING 55
SWIDTH 556 0
DWIDTH 7 0
BBX 5 8 1 0
BITMAP
F8
10
20
20
20
40
40
40
ENDCHAR
STARTCHAR eight
ENCODING 56
SWIDTH 556 0
DWIDTH 7 0
BBX 6 8 1 0
BITMAP
70
88
88
70
CC
84
84
78
ENDCHAR
STARTCHAR nine
ENCODING 57
SWIDTH 556 0
DWIDTH 7 0
BBX 5 8 1 0
BITMAP
70
88
88
88
78
08
90
60
ENDCHAR
STARTCHAR colon
ENCODING 58
SWIDTH 277 0
DWIDTH 3 0
BBX 1 6 1 0
BITMAP
80
00
00
00
00
80
ENDCHAR
STARTCHAR semicolon
ENCODING 59
SWIDTH 277 0
DWIDTH 3 0
BBX 1 7 1 -1
BITMAP
80
00
00
00
00
80
80
ENDCHAR
STARTCHAR less
ENCODING 60
SWIDTH 583 0
DWIDTH 7 0
BBX 5 6 1 1
BITMAP
08
30
C0
C0
30
08
ENDCHAR
STARTCHAR equal
ENCODING 61
SWIDTH 312 0
DWIDTH 4 0
BBX 4 4 0 1
BITMAP
F0
00
00
F0
ENDCHAR
STARTCHAR greater
ENCODING 62
SWIDTH 583 0
DWIDTH 7 0
BBX 5 5 1 2
BITMAP
80
70
08
30
C0
ENDCHAR
STARTCHAR question
ENCODING 63
SWIDTH 556 0
DWIDTH 7 0
BBX 5 8 1 0
BITMAP
70
88
08
10
20
20
00
20
ENDCHAR
STARTCHAR at
ENCODING 64
SWIDTH 1015 0
DWIDTH 12 0
BBX 11 11 1 -3
BITMAP
1F00
2080
5E40
9240
A240
A240
A680
9B00
4060
20C0
1F00
ENDCHAR
STARTCHAR A
ENCODING 65
SWIDTH 666 0
DWIDTH 8 0
BBX 8 8 0 0
BITMAP
18
28
28
24
44
7E
42
83
ENDCHAR
STARTCHAR B
ENCODING 66
SWIDTH 666 0
DWIDTH 8 0
BBX 7 8 1 0
BITMAP
F8
84
84
F8
86
82
82
FC
ENDCHAR
STARTCHAR C
ENCODING 67
SWIDTH 722 0
DWIDTH 9 0
BBX 7 8 1 0
BITMAP
3C
42
80
80
80
82
44
38
ENDCHAR
STARTCHAR D
ENCODING 68
SWIDTH 722 0
DWIDTH 9 0
BBX 7 8 1 0
BITMAP
FC
86
82
82
82
82
86
FC
ENDCHAR
STARTCHAR E
ENCODING 69
SWIDTH 666 0
DWIDTH 8 0
BBX 6 8 1 0
BITMAP
FC
80
80
FC
80
80
80
FC
ENDCHAR
STARTCHAR F
ENCODING 70
SWIDTH 610 0
DWIDTH 7 0
BBX 6 8 1 0
BITMAP
FC
80
80
F8
80
80
80
80
ENDCHAR
STARTCHAR G
ENCODING 71
SWIDTH 777 0
DWIDTH 9 0
BBX 7 8 1 0
BITMAP
3C
42
82
80
8E
82
42
3C
ENDCHAR
STARTCHAR H
ENCODING 72
SWIDTH 722 0
DWIDTH 9 0
BBX 7 8 1 0
BITMAP
82
82
82
FE
82
82
82
82
ENDCHAR
STARTCHAR I
ENCODING 73
SWIDTH 277 0
DWIDTH 3 0
BBX 1 8 1 0
BITMAP
80
80
80
80
80
80
80
80
ENDCHAR
STARTCHAR J
ENCODING 74
SWIDTH 500 0
DWIDTH 6 0
BBX 5 8 0 0
BITMAP
08
08
08
08
08
88
88
70
ENDCHAR
STARTCHAR K
ENCODING 75
SWIDTH 666 0
DWIDTH 8 0
BBX 7 8 1 0
BITMAP
84
88
90
A0
D0
88
84
86
ENDCHAR
STARTCHAR L
ENCODING 76
SWIDTH 556 0
DWIDTH 7 0
BBX 5 8 1 0
BITMAP
80
80
80
80
80
80
80
F8
ENDCHAR
STARTCHAR M
ENCODING 77
SWIDTH 833 0
DWIDTH 10 0
BBX 8 8 1 0
BITMAP
C1
C3
C5
A5
A5
A9
99
89
ENDCHAR
STARTCHAR N
ENCODING 78
SWIDTH 722 0
DWIDTH 9 0
BBX 7 8 1 0
BITMAP
82
C2
A2
92
92
8A
86
82
ENDCHAR
STARTCHAR O
ENCODING 79
SWIDTH 777 0
DWIDTH 10 0
BBX 8 8 1 0
BITMAP
3C
42
81
81
81
81
43
3C
ENDCHAR
STARTCHAR P
ENCODING 80
SWIDTH 666 0
DWIDTH 8 0
BBX 6 8 1 0
BITMAP
F8
84
84
84
F8
80
80
80
ENDCHAR
STARTCHAR Q
ENCODING 81
SWIDTH 777 0
DWIDTH 10 0
BBX 8 8 1 0
BITMAP
3C
42
81
81
81
81
4E
3F
ENDCHAR
STARTCHAR R
ENCODING 82
SWIDTH 722 0
DWIDTH 9 0
BBX 7 8 1 0
BITMAP
FC
82
82
FC
88
84
82
82
ENDCHAR
STARTCHAR S
ENCODING 83
SWIDTH 666 0
DWIDTH 8 0
BBX 6 8 1 0
BITMAP
78
84
80
40
38
04
84
78
ENDCHAR
STARTCHAR T
ENCODING 84
SWIDTH 610 0
DWIDTH 7 0
BBX 7 8 0 0
BITMAP
FE
10
10
10
10
10
10
10
ENDCHAR
STARTCHAR U
ENCODING 85
SWIDTH 722 0
DWIDTH 9 0
BBX 7 8 1 0
BITMAP
82
82
82
82
82
82
C6
7C
ENDCHAR
STARTCHAR V
ENCODING 86
SWIDTH 666 0
DWIDTH 8 0
BBX 7 8 0 0
BITMAP
82
42
42
44
24
28
18
18
ENDCHAR
STARTCHAR W
ENCODING 87
SWIDTH 943 0
DWIDTH 11 0
BBX 11 8 0 0
BITMAP
8420
4A40
4A40
4A40
5240
3180
3180
3080
ENDCHAR
STARTCHAR X
ENCODING 88
SWIDTH 666 0
DWIDTH 8 0
BBX 7 8 0 0
BITMAP
42
24
28
18
18
24
44
C2
ENDCHAR
STARTCHAR Y
ENCODING 89
SWIDTH 666 0
DWIDTH 8 0
BBX 7 8 0 0
BITMAP
82
44
48
28
10
10
10
10
ENDCHAR
STARTCHAR Z
ENCODING 90
SWIDTH 610 0
DWIDTH 7 0
BBX 7 8 0 0
BITMAP
7E
04
08
10
20
40
40
FE
ENDCHAR
STARTCHAR bracketleft
ENCODING 91
SWIDTH 277 0
DWIDTH 3 0
BBX 1 10 1 -2
BITMAP
80
80
80
80
80
80
80
80
80
80
ENDCHAR
STARTCHAR backslash
ENCODING 92
SWIDTH 277 0
DWIDTH 3 0
BBX 3 8 0 0
BITMAP
80
80
80
40
40
40
20
20
ENDCHAR
STARTCHAR bracketright
ENCODING 93
SWIDTH 277 0
DWIDTH 3 0
BBX 1 10 1 -2
BITMAP
80
80
80
80
80
80
80
80
80
80
ENDCHAR
STARTCHAR asciicircum
ENCODING 94
SWIDTH 469 0
DWIDTH 6 0
BBX 4 5 1 4
BITMAP
40
40
A0
A0
90
ENDCHAR
STARTCHAR underscore
ENCODING 95
SWIDTH 556 0
DWIDTH 7 0
BBX 7 1 0 -2
BITMAP
FE
ENDCHAR
STARTCHAR grave
ENCODING 96
SWIDTH 333 0
DWIDTH 4 0
BBX 1 1 1 7
BITMAP
80
ENDCHAR
STARTCHAR a
ENCODING 97
SWIDTH 556 0
DWIDTH 7 0
BBX 5 6 1 0
BITMAP
78
88
08
F8
88
F8
ENDCHAR
STARTCHAR b
ENCODING 98
SWIDTH 556 0
DWIDTH 7 0
BBX 5 8 1 0
BITMAP
80
80
B0
C8
88
88
88
F0
ENDCHAR
STARTCHAR c
ENCODING 99
SWIDTH 500 0
DWIDTH 6 0
BBX 5 6 1 0
BITMAP
70
88
80
80
88
70
ENDCHAR
STARTCHAR d
ENCODING 100
SWIDTH 556 0
DWIDTH 7 0
BBX 6 8 0 0
BITMAP
04
04
74
8C
84
84
8C
74
ENDCHAR
STARTCHAR e
ENCODING 101
SWIDTH 556 0
DWIDTH 7 0
BBX 6 6 0 0
BITMAP
78
88
FC
80
C8
70
ENDCHAR
STARTCHAR f
ENCODING 102
SWIDTH 277 0
DWIDTH 3 0
BBX 4 8 0 0
BITMAP
70
40
E0
40
40
40
40
40
ENDCHAR
STARTCHAR g
ENCODING 103
SWIDTH 556 0
DWIDTH 7 0
BBX 5 9 1 -3
BITMAP
78
88
88
88
88
78
08
88
70
ENDCHAR
STARTCHAR h
ENCODING 104
SWIDTH 556 0
DWIDTH 7 0
BBX 5 8 1 0
BITMAP
80
80
B0
C8
88
88
88
88
ENDCHAR
STARTCHAR i
ENCODING 105
SWIDTH 222 0
DWIDTH 3 0
BBX 1 8 1 0
BITMAP
80
00
80
80
80
80
80
80
ENDCHAR
STARTCHAR j
ENCODING 106
SWIDTH 222 0
DWIDTH 3 0
BBX 2 10 0 -2
BITMAP
40
00
40
40
40
40
40
40
40
C0
ENDCHAR
STARTCHAR k
ENCODING 107
SWIDTH 500 0
DWIDTH 6 0
BBX 5 8 1 0
BITMAP
80
80
90
A0
C0
A0
90
98
ENDCHAR
STARTCHAR l
ENCODING 108
SWIDTH 222 0
DWIDTH 3 0
BBX 1 8 1 0
BITMAP
80
80
80
80
80
80
80
80
ENDCHAR
STARTCHAR m
ENCODING 109
SWIDTH 833 0
DWIDTH 10 0
BBX 8 6 1 0
BITMAP
F7
99
91
91
91
91
ENDCHAR
STARTCHAR n
ENCODING 110
SWIDTH 556 0
DWIDTH 7 0
BBX 5 6 1 0
BITMAP
B0
C8
88
88
88
88
ENDCHAR
STARTCHAR o
ENCODING 111
SWIDTH 556 0
DWIDTH 7 0
BBX 5 6 1 0
BITMAP
70
88
88
88
88
70
ENDCHAR
STARTCHAR p
ENCODING 112
SWIDTH 556 0
DWIDTH 7 0
BBX 5 8 1 -2
BITMAP
F0
88
88
88
88
F0
80
80
ENDCHAR
STARTCHAR q
ENCODING 113
SWIDTH 556 0
DWIDTH 7 0
BBX 5 8 1 -2
BITMAP
68
98
88
88
88
78
08
08
ENDCHAR
STARTCHAR r
ENCODING 114
SWIDTH 333 0
DWIDTH 4 0
BBX 3 6 1 0
BITMAP
E0
80
80
80
80
80
ENDCHAR
STARTCHAR s
ENCODING 115
SWIDTH 500 0
DWIDTH 6 0
BBX 5 6 0 0
BITMAP
38
48
40
38
88
78
ENDCHAR
STARTCHAR t
ENCODING 116
SWIDTH 277 0
DWIDTH 3 0
BBX 3 8 0 0
BITMAP
40
40
E0
40
40
40
40
60
ENDCHAR
STARTCHAR u
ENCODING 117
SWIDTH 556 0
DWIDTH 7 0
BBX 5 6 1 0
BITMAP
88
88
88
88
88
78
ENDCHAR
STARTCHAR v
ENCODING 118
SWIDTH 500 0
DWIDTH 6 0
BBX 5 6 0 0
BITMAP
88
48
50
50
30
20
ENDCHAR
STARTCHAR w
ENCODING 119
SWIDTH 722 0
DWIDTH 9 0
BBX 8 6 0 0
BITMAP
89
99
5A
56
66
26
ENDCHAR
STARTCHAR x
ENCODING 120
SWIDTH 500 0
DWIDTH 6 0
BBX 5 6 0 0
BITMAP
48
50
30
30
50
C8
ENDCHAR
STARTCHAR y
ENCODING 121
SWIDTH 500 0
DWIDTH 6 0
BBX 6 8 0 -2
BITMAP
8C
48
48
30
30
10
20
40
ENDCHAR
STARTCHAR z
ENCODING 122
SWIDTH 500 0
DWIDTH 6 0
BBX 5 6 0 0
BITMAP
78
10
20
20
40
F8
ENDCHAR
STARTCHAR braceleft
ENCODING 123
SWIDTH 333 0
DWIDTH 4 0
BBX 3 10 1 -2
BITMAP
60
40
40
40
80
80
40
40
40
60
ENDCHAR
STARTCHAR bar
ENCODING 124
SWIDTH 259 0
DWIDTH 3 0
BBX 1 10 1 -2
BITMAP
80
80
80
80
80
80
80
80
80
80
ENDCHAR
STARTCHAR braceright
ENCODING 125
SWIDTH 333 0
DWIDTH 4 0
BBX 3 10 0 -2
BITMAP
80
40
40
40
20
20
40
40
40
C0
ENDCHAR
STARTCHAR asciitilde
ENCODING 126
SWIDTH 583 0
DWIDTH 7 0
BBX 5 2 1 3
BITMAP
E8
B8
ENDCHAR
ENDFONT
